<svg version="1.0" xmlns="http://www.w3.org/2000/svg" viewBox="0 0 120.000000 120.000000">
<g transform="translate(0.000000,120.000000) scale(0.100000,-0.100000)"
fill="#000000" stroke="none">
<path d="M50 855 c0 -242 2 -295 14 -295 7 0 48 16 91 36 l77 36 -7 55 c-6 46
-13 62 -41 88 -39 38 -42 52 -13 89 25 32 77 36 102 8 23 -25 21 -71 -3 -97
-18 -19 -20 -30 -14 -78 l7 -57 62 0 c131 0 245 -41 329 -117 20 -18 43 -33
51 -33 9 0 32 16 51 36 25 27 34 46 34 71 0 40 31 72 68 73 28 0 72 -42 72
-69 0 -31 -55 -71 -89 -65 -24 5 -36 -1 -72 -35 l-44 -41 27 -53 c68 -133 68
-134 68 -254 l0 -113 155 0 c108 0 155 3 155 11 0 6 -25 48 -57 92 -31 45 -81
117 -111 161 -30 45 -61 88 -69 97 -12 15 -9 19 31 43 55 32 117 102 146 164
20 42 22 59 18 162 -3 88 -9 126 -25 160 -28 62 -96 127 -170 162 -102 49
-182 57 -530 58 l-313 0 0 -295z"/>
<path d="M130 470 c-11 -11 -20 -29 -20 -40 0 -26 34 -60 60 -60 26 0 60 34
60 60 0 11 -9 29 -20 40 -11 11 -29 20 -40 20 -11 0 -29 -9 -40 -20z"/>
<path d="M610 300 c-11 -11 -20 -29 -20 -40 0 -11 9 -29 20 -40 11 -11 29 -20
40 -20 26 0 60 34 60 60 0 11 -9 29 -20 40 -11 11 -29 20 -40 20 -11 0 -29 -9
-40 -20z"/>
</g>
</svg>
