<?xml version="1.0" standalone="no"?>
<!DOCTYPE svg PUBLIC "-//W3C//DTD SVG 20010904//EN"
 "http://www.w3.org/TR/2001/REC-SVG-20010904/DTD/svg10.dtd">
<svg version="1.0" xmlns="http://www.w3.org/2000/svg"
 width="700.000000pt" height="700.000000pt" viewBox="0 0 700.000000 700.000000"
 preserveAspectRatio="xMidYMid meet">
<metadata>
Created by potrace 1.14, written by Peter Selinger 2001-2017
</metadata>
<g transform="translate(0.000000,700.000000) scale(0.100000,-0.100000)"
fill="#000000" stroke="none">
<path d="M293 5223 c6 -1635 8 -1718 38 -1877 13 -68 31 -87 72 -73 101 33
295 111 452 183 273 124 489 225 494 229 3 4 -10 125 -24 225 -9 67 -15 109
-21 150 -15 119 -40 205 -78 275 -30 56 -39 67 -152 185 -55 58 -114 123 -131
145 -77 103 -74 190 13 317 102 150 220 214 390 211 67 -1 163 -34 212 -74 79
-64 131 -191 127 -309 -4 -120 -34 -193 -126 -308 -66 -82 -81 -125 -82 -227
0 -76 8 -158 38 -390 4 -27 10 -72 14 -100 l6 -50 235 -2 c222 -1 385 -7 475
-18 22 -2 63 -7 90 -10 312 -34 685 -149 972 -301 175 -92 317 -189 475 -324
45 -40 92 -80 104 -89 41 -35 146 -103 181 -118 21 -8 49 -12 66 -9 82 16 292
201 380 334 58 86 85 159 92 244 15 182 43 258 131 345 113 114 263 148 385
89 54 -26 199 -139 199 -154 0 -4 10 -18 23 -32 12 -14 35 -49 50 -77 57 -106
32 -199 -82 -313 -138 -136 -277 -188 -451 -168 -113 13 -176 -25 -424 -256
-65 -61 -138 -129 -163 -151 l-44 -40 209 -415 c227 -452 292 -608 318 -769 3
-18 7 -43 10 -54 11 -57 17 -310 18 -737 l1 -475 670 1 c616 0 922 6 1014 20
67 10 112 25 117 39 9 23 -73 166 -226 391 -398 587 -998 1452 -1094 1579 -34
44 -69 93 -79 108 -37 58 -7 88 235 237 112 69 221 160 353 293 198 202 337
389 447 607 48 96 96 213 99 242 0 4 5 22 10 40 32 112 29 667 -6 1078 -3 36
-7 83 -10 105 -3 22 -7 60 -10 85 -3 25 -8 52 -10 60 -2 8 -6 26 -9 40 -61
359 -375 768 -809 1057 -166 110 -382 215 -587 285 -83 28 -279 80 -350 92
-19 3 -44 8 -55 10 -18 3 -112 17 -213 31 -181 26 -504 46 -967 61 -88 3 -803
8 -1589 10 l-1428 5 5 -1488z"/>
<path d="M940 2850 c-55 -15 -135 -64 -182 -111 -68 -68 -118 -176 -112 -243
6 -73 43 -144 112 -213 74 -75 145 -113 222 -120 49 -5 65 -1 121 26 77 38
173 133 209 206 37 74 35 161 -5 235 -80 147 -252 251 -365 220z"/>
<path d="M3733 1855 c-150 -45 -289 -211 -287 -341 2 -110 102 -246 226 -309
130 -64 226 -40 359 90 105 103 132 224 75 340 -39 79 -119 158 -198 195 -76
36 -120 42 -175 25z"/>
</g>
</svg>
